#!OML:ASF H:\MichaelJackson\Top Level 1\Subject 1\Session 1\male.ASF
:FULLY-SPECIFIED
:DEGREES
393
root 9.39239 16.4108 10.8869 -342.637 -73.5916 -10.128
lowerback 10.1958 0.948162 -4.20954
upperback 2.00587 0.869477 2.93321
thorax -3.73382 0.464151 5.33916
lowerneck -11.3585 -6.52171 1.94968
upperneck 14.4668 -9.21961 -0.333952
head 6.14766 -4.40571 -1.20249
rclavicle -2.48481e-016 -1.39149e-014
rhumerus -57.0045 5.73299 -101.867
rradius 100.312
rwrist 7.03416
rhand -15.4992 -14.2916
rfingers 7.12502
rthumb 10.6832 -44
lclavicle -2.48481e-016 -1.39149e-014
lhumerus -49.2047 -45.5125 119.505
lradius 93.3501
lwrist 34.1562
lhand 45.035 40.2781
lfingers 7.12502
lthumb 66.4136 44.9106
rfemur -49.5673 -1.54538 8.52615
rtibia 94.3624
rfoot 2.05068 11.8379
rtoes -19.2221
lfemur -23.8513 13.7607 -13.7962
ltibia 56.2359
lfoot -25.3582 6.00547
ltoes -10.9145
394
root 9.33597 16.4143 10.8279 -344.397 -68.8128 -8.66588
lowerback 10.3513 0.670247 -3.8599
upperback 1.96869 0.546025 3.23035
thorax -3.81872 0.304194 5.49911
lowerneck -11.1035 -6.97261 1.59037
upperneck 14.0964 -9.8255 0.165231
head 6.02434 -4.68472 -1.02163
rclavicle -2.46493e-014 2.0276e-014
rhumerus -57.7704 5.52616 -101.146
rradius 100.89
rwrist 6.69637
rhand -15.7069 -13.1637
rfingers 7.12502
rthumb 10.4829 -42.8823
lclavicle -2.46493e-014 2.0276e-014
lhumerus -48.8883 -45.4353 119.535
lradius 92.5797
lwrist 34.3979
lhand 44.2906 40.0397
lfingers 7.12502
lthumb 65.8419 45.7496
rfemur -48.5963 -1.64343 6.94864
rtibia 93.1136
rfoot 1.9343 10.3151
rtoes -17.5885
lfemur -24.4452 15.1991 -13.5195
ltibia 56.3078
lfoot -24.9787 6.77746
ltoes -11.4481
395
root 9.27512 16.4174 10.7754 -345.354 -64.0842 -8.02576
lowerback 10.4862 0.410617 -3.3948
upperback 1.93463 0.261794 3.53839
thorax -3.8936 0.161479 5.60025
lowerneck -10.8685 -7.42779 1.26233
upperneck 13.6731 -10.445 0.699339
head 5.89376 -4.96834 -0.835736
rclavicle -6.9674e-014 9.54166e-015
rhumerus -58.5254 5.34137 -100.336
rradius 101.531
rwrist 6.25566
rhand -16.2497 -12.5082
rfingers 7.12502
rthumb 9.9593 -42.2525
lclavicle -6.9674e-014 9.54166e-015
lhumerus -48.5485 -45.362 119.583
lradius 91.7527
lwrist 34.5368
lhand 43.3923 39.5768
lfingers 7.12502
lthumb 65.1405 46.5181
rfemur -47.345 -1.68313 5.46475
rtibia 91.5877
rfoot 1.96484 8.57336
rtoes -15.0559
lfemur -25.132 16.5754 -13.2238
ltibia 56.428
lfoot -24.6268 7.44284
ltoes -11.6901
396
root 9.21005 16.4184 10.7296 -345.89 -59.5012 -7.83014
lowerback 10.5678 0.182077 -2.87328
upperback 1.90222 0.0285016 3.87183
thorax -3.9446 0.0422796 5.68944
lowerneck -10.6199 -7.87127 0.932795
upperneck 13.2041 -11.0465 1.24621
head 5.7532 -5.24526 -0.642984
rclavicle -6.49032e-014 7.55382e-015
rhumerus -59.2804 5.24027 -99.4274
rradius 102.204
rwrist 5.7403
rhand -17.1063 -12.3858
rfingers 7.12502
rthumb 9.13278 -42.1681
lclavicle -6.49032e-014 7.55382e-015
lhumerus -48.1907 -45.208 119.63
lradius 90.902
lwrist 34.5128
lhand 42.3295 38.8622
lfingers 7.12502
lthumb 64.2958 47.1696
rfemur -45.853 -1.58994 4.08935
rtibia 89.7954
rfoot 2.07496 6.53893
rtoes -11.7463
lfemur -25.8806 17.9317 -12.9172
ltibia 56.5781
lfoot -24.3546 7.99451
ltoes -11.6225
397
root 9.14171 16.4154 10.6907 -346.275 -55.0759 -7.81109
lowerback 10.586 -0.00938585 -2.32398
upperback 1.8887 -0.151685 4.19572
thorax -3.94822 -0.0528046 5.74441
lowerneck -10.3986 -8.30914 0.64026
upperneck 12.7149 -11.6427 1.78593
head 5.61408 -5.52048 -0.458798
rclavicle 1.19072e-013 -1.98785e-014
rhumerus -59.9893 5.19159 -98.4278
rradius 102.878
rwrist 5.1654
rhand -18.1796 -12.7807
rfingers 7.12502
rthumb 8.09695 -42.6056
lclavicle 1.19072e-013 -1.98785e-014
lhumerus -47.828 -45.0431 119.634
lradius 90.0655
lwrist 34.342
lhand 41.0171 37.8861
lfingers 7.12502
lthumb 63.2328 47.7554
rfemur -44.1268 -1.40108 2.80296
rtibia 87.7462
rfoot 2.17432 4.14936
rtoes -7.96937
lfemur -26.6565 19.2423 -12.6523
ltibia 56.7321
lfoot -24.1884 8.46375
ltoes -11.358
398
root 9.0704 16.4063 10.6579 -346.625 -50.8328 -7.82246
lowerback 10.5324 -0.172543 -1.84672
upperback 1.8758 -0.301851 4.52036
thorax -3.91555 -0.132787 5.83633
lowerneck -10.1697 -8.72076 0.349306
upperneck 12.2252 -12.1955 2.28485
head 5.47576 -5.77956 -0.283905
rclavicle 9.93923e-014 5.1684e-015
rhumerus -60.6859 5.28349 -97.3251
rradius 103.527
rwrist 4.57213
rhand -19.3027 -13.5405
rfingers 7.12502
rthumb 7.01296 -43.4043
lclavicle 9.93923e-014 5.1684e-015
lhumerus -47.4809 -44.7831 119.617
lradius 89.2624
lwrist 34.0081
lhand 39.3874 36.6671
lfingers 7.12502
lthumb 61.8854 48.3029
rfemur -42.2071 -1.13182 1.57384
rtibia 85.4517
rfoot 2.19571 1.36008
rtoes -3.80033
lfemur -27.4424 20.5119 -12.4782
ltibia 56.867
lfoot -24.1658 8.84215
ltoes -10.9766
399
root 8.99626 16.3914 10.6322 -347.023 -46.7453 -7.79935
lowerback 10.4263 -0.317105 -1.44613
upperback 1.8697 -0.437405 4.82861
thorax -3.84836 -0.205202 5.95152
lowerneck -9.93268 -9.10394 0.0760251
upperneck 11.7595 -12.7032 2.72008
head 5.34232 -6.02164 -0.127852
rclavicle -1.67973e-014 3.4191e-014
rhumerus -61.3595 5.5082 -96.1203
rradius 104.115
rwrist 4.04688
rhand -20.3608 -14.5121
rfingers 7.12502
rthumb 5.99148 -44.4074
lclavicle -1.67973e-014 3.4191e-014
lhumerus -47.1712 -44.4577 119.585
lradius 88.4975
lwrist 33.5243
lhand 37.4345 35.1873
lfingers 7.12502
lthumb 60.2366 48.7168
rfemur -40.0482 -0.815551 0.393033
rtibia 82.9012
rfoot 2.06369 -1.8365
rtoes 0.766613
lfemur -28.1709 21.6738 -12.3967
ltibia 56.9591
lfoot -24.3163 9.11545
ltoes -10.507
400
root 8.91961 16.3709 10.6136 -347.483 -42.8271 -7.69969
lowerback 10.2602 -0.436461 -1.16302
upperback 1.86767 -0.554843 5.10866
thorax -3.74501 -0.2676 6.09993
lowerneck -9.70099 -9.45506 -0.177973
upperneck 11.3468 -13.1628 3.08556
head 5.22327 -6.24421 0.00628887
rclavicle 3.55825e-014 -1.31198e-014
rhumerus -62.0095 5.88358 -94.8287
rradius 104.625
rwrist 3.64518
rhand -21.3382 -15.5909
rfingers 7.12502
rthumb 5.04781 -45.5108
lclavicle 3.55825e-014 -1.31198e-014
lhumerus -46.9045 -44.0919 119.546
lradius 87.7555
lwrist 32.884
lhand 35.2725 33.4865
lfingers 7.12502
lthumb 58.3743 48.8672
rfemur -37.6823 -0.438816 -0.755866
rtibia 80.0924
rfoot 1.71879 -5.35245
rtoes 5.73215
lfemur -28.8157 22.7058 -12.4108
ltibia 56.9991
lfoot -24.6034 9.20813
ltoes -10.0902
401
root 8.84098 16.3458 10.6024 -347.991 -39.0572 -7.5458
lowerback 10.059 -0.537871 -0.983416
upperback 1.85821 -0.661476 5.3624
thorax -3.63013 -0.323145 6.27723
lowerneck -9.46697 -9.76717 -0.410258
upperneck 11.0092 -13.5671 3.37888
head 5.12261 -6.44289 0.117938
rclavicle 1.51076e-014 1.19271e-014
rhumerus -62.6588 6.44161 -93.4752
rradius 105.04
rwrist 3.43979
rhand -22.2047 -16.7074
rfingers 7.12502
rthumb 4.21107 -46.6455
lclavicle 1.51076e-014 1.19271e-014
lhumerus -46.7184 -43.6613 119.537
lradius 87.0226
lwrist 32.072
lhand 33.0471 31.6466
lfingers 7.12502
lthumb 56.4236 48.7029
rfemur -35.1175 0.0120259 -1.84229
rtibia 77.0249
rfoot 1.13496 -9.0155
rtoes 11.2206
lfemur -29.3489 23.5513 -12.4547
ltibia 56.9961
lfoot -25.0337 9.03792
ltoes -9.78328
402
root 8.76101 16.3172 10.5979 -348.521 -35.4093 -7.34773
lowerback 9.82305 -0.627907 -0.894579
upperback 1.83822 -0.764304 5.58434
thorax -3.50616 -0.375499 6.47112
lowerneck -9.2412 -10.039 -0.623518
upperneck 10.7525 -13.9185 3.62543
head 5.04492 -6.61651 0.214148
rclavicle 1.59028e-015 2.38542e-015
rhumerus -63.3088 7.19962 -92.0984
rradius 105.355
rwrist 3.50201
rhand -22.9796 -17.8656
rfingers 7.12502
rthumb 3.46283 -47.8172
lclavicle 1.59028e-015 2.38542e-015
lhumerus -46.6014 -43.2034 119.54
lradius 86.2851
lwrist 31.1303
lhand 30.9184 29.7542
lfingers 7.12502
lthumb 54.5307 48.227
rfemur -32.3877 0.546672 -2.84292
rtibia 73.7165
rfoot 0.305949 -12.573
rtoes 16.8122
lfemur -29.7901 24.1423 -12.4711
ltibia 56.9805
lfoot -25.5889 8.49973
ltoes -9.56542
403
root 8.68053 16.2852 10.5984 -349.008 -31.9159 -7.16153
lowerback 9.55155 -0.692704 -0.862426
upperback 1.80116 -0.840633 5.776
thorax -3.38249 -0.413565 6.66081
lowerneck -9.04572 -10.2714 -0.809188
upperneck 10.5766 -14.2225 3.84434
head 4.99397 -6.76546 0.297668
rclavicle -5.88403e-014 -6.99722e-014
rhumerus -63.9625 8.1729 -90.7336
rradius 105.577
rwrist 3.88445
rhand -23.6304 -19.095
rfingers 7.12502
rthumb 2.83434 -49.0559
lclavicle -5.88403e-014 -6.99722e-014
lhumerus -46.5632 -42.7299 119.558
lradius 85.5372
lwrist 30.05
lhand 29.0806 27.9087
lfingers 7.12502
lthumb 52.8785 47.4776
rfemur -29.5973 1.20778 -3.70943
rtibia 70.2062
rfoot -0.692482 -15.7715
rtoes 22.0073
lfemur -30.2015 24.495 -12.3929
ltibia 57.0027
lfoot -26.2257 7.53143
ltoes -9.38005
404
root 8.60073 16.25 10.6034 -349.419 -28.5687 -7.0267
lowerback 9.24171 -0.740329 -0.826493
upperback 1.7514 -0.895388 5.93618
thorax -3.25345 -0.440742 6.81054
lowerneck -8.88599 -10.4665 -0.967632
upperneck 10.4559 -14.4839 4.06536
head 4.96459 -6.89067 0.377294
rclavicle 3.97569e-016 -1.43125e-014
rhumerus -64.6159 9.38549 -89.4223
rradius 105.719
rwrist 4.59367
rhand -24.147 -20.455
rfingers 7.12502
rthumb 2.33541 -50.4219
lclavicle 3.97569e-016 -1.43125e-014
lhumerus -46.5821 -42.2456 119.553
lradius 84.7935
lwrist 28.8614
lhand 27.5776 26.137
lfingers 7.12502
lthumb 51.5165 46.5255
rfemur -26.802 1.97657 -4.4017
rtibia 66.5461
rfoot -1.73434 -18.3866
rtoes 26.3367
lfemur -30.6416 24.5958 -12.18
ltibia 57.1146
lfoot -26.901 6.15367
ltoes -9.25366
405
root 8.52196 16.2118 10.6104 -349.753 -25.343 -6.9784
lowerback 8.91911 -0.780348 -0.736203
upperback 1.70643 -0.937039 6.06706
thorax -3.11499 -0.462235 6.8948
lowerneck -8.79049 -10.6328 -1.0819
upperneck 10.3504 -14.716 4.30534
head 4.94908 -6.99732 0.454138
rclavicle -1.86858e-014 -8.74653e-015
rhumerus -65.2347 10.8409 -88.1836
rradius 105.8
rwrist 5.59178
rhand -24.4126 -21.9189
rfingers 7.12502
rthumb 2.07886 -51.8885
lclavicle -1.86858e-014 -8.74653e-015
lhumerus -46.6259 -41.7951 119.49
lradius 84.0812
lwrist 27.6574
lhand 26.5322 24.6987
lfingers 7.12502
lthumb 50.5641 45.6201
rfemur -24.0421 2.80769 -4.86889
rtibia 62.8031
rfoot -2.6391 -20.2822
rtoes 29.2587
lfemur -31.16 24.4544 -11.8036
ltibia 57.3566
lfoot -27.5767 4.42935
ltoes -9.14541
